<svg width="20" height="20" viewBox="0 0 20 20" fill="none" xmlns="http://www.w3.org/2000/svg" class="ekra_svg_icon"><path d="M10 0C4.47768 0 0 4.47768 0 10C0 15.5223 4.47768 20 10 20C15.5223 20 20 15.5223 20 10C20 4.47768 15.5223 0 10 0ZM10 18.3036C5.41518 18.3036 1.69643 14.5848 1.69643 10C1.69643 5.41518 5.41518 1.69643 10 1.69643C14.5848 1.69643 18.3036 5.41518 18.3036 10C18.3036 14.5848 14.5848 18.3036 10 18.3036Z" fill="currentColor"></path> <path d="M12.0941 5.82056C11.5314 5.29032 10.7887 5 10.0009 5C9.21319 5 8.47046 5.29234 7.90778 5.82056C7.3226 6.37097 7 7.11089 7 7.90323V8.05645C7 8.14516 7.06752 8.21774 7.15005 8.21774H8.05033C8.13285 8.21774 8.20037 8.14516 8.20037 8.05645V7.90323C8.20037 7.01411 9.00875 6.29032 10.0009 6.29032C10.9931 6.29032 11.8015 7.01411 11.8015 7.90323C11.8015 8.53024 11.3889 9.10484 10.7493 9.36895C10.3517 9.53226 10.0141 9.81855 9.77211 10.1935C9.52641 10.5766 9.39887 11.0363 9.39887 11.502V11.9355C9.39887 12.0242 9.46639 12.0968 9.54892 12.0968H10.4492C10.5317 12.0968 10.5992 12.0242 10.5992 11.9355V11.4778C10.6002 11.2821 10.656 11.0912 10.7594 10.9301C10.8628 10.769 11.0089 10.6451 11.1788 10.5746C12.2854 10.1169 13 9.06855 13 7.90323C13.0019 7.11089 12.6793 6.37097 12.0941 5.82056ZM9.2507 14.1935C9.2507 14.4074 9.32974 14.6126 9.47044 14.7638C9.61113 14.915 9.80196 15 10.0009 15C10.1999 15 10.3907 14.915 10.5314 14.7638C10.6721 14.6126 10.7512 14.4074 10.7512 14.1935C10.7512 13.9797 10.6721 13.7745 10.5314 13.6233C10.3907 13.4721 10.1999 13.3871 10.0009 13.3871C9.80196 13.3871 9.61113 13.4721 9.47044 13.6233C9.32974 13.7745 9.2507 13.9797 9.2507 14.1935Z" fill="currentColor"></path></svg>
